<?xml version="1.0" standalone="no"?>
<!DOCTYPE svg PUBLIC "-//W3C//DTD SVG 1.1//EN" "http://www.w3.org/Graphics/SVG/1.1/DTD/svg11.dtd">
<svg xmlns="http://www.w3.org/2000/svg" xmlns:xlink="http://www.w3.org/1999/xlink" version="1.1" id="top_logo" x="0px" y="0px" viewBox="0 0 1080 342.6" style="enable-background:new 0 0 1080 342.6;" xml:space="preserve" width="1080" height="342.6000061035156">
<style type="text/css">
	.st0{fill:none;}
	.st1{fill:#474DD4;}
	.st2{fill:#D8232A;}
	.st3{fill:#FBAC2B;}
	.st4{fill:#18639D;}
	.st5{fill:#34BEB1;}
	.st6{fill:#FFFFFF;}
	.st7{clip-path:url(#SVGID_00000029748007205103221520000008264618504455500210_);}
	.st8{fill:url(#SVGID_00000165196658240085771950000001651979488674072456_);}
	.st9{fill:url(#SVGID_00000098901879787879848420000014184321314079348362_);}
	.st10{fill:url(#SVGID_00000035516388675805618860000014518278197092425613_);}
	.st11{fill:url(#SVGID_00000094594149029656197570000002970091596541516975_);}
	.st12{fill:url(#SVGID_00000136376286327871947730000013352038775704726679_);}
	.st13{fill:url(#SVGID_00000042003636043511976940000009883530055571885223_);}
	.st14{fill:url(#SVGID_00000069357391701547472310000001795162542987773375_);}
	.st15{fill:url(#SVGID_00000012467008284299142500000016673125859643730339_);}
	.st16{fill:url(#SVGID_00000069383759120998751800000002981089335285931399_);}
	.st17{clip-path:url(#SVGID_00000073713654242469507070000002713639626475180209_);}
	.st18{fill:url(#SVGID_00000064353141137958057300000015344938867175442322_);}
	.st19{fill:url(#SVGID_00000041997970428227971220000004295724374174957246_);}
	.st20{fill:url(#SVGID_00000129202021931577385480000014885692405830270387_);}
	.st21{fill:url(#SVGID_00000065064653557080381490000009502128543516236475_);}
	.st22{fill:url(#SVGID_00000117645821327641113230000014767043726531594372_);}
	.st23{fill:url(#SVGID_00000173146356990560198400000013176653996502496898_);}
	.st24{fill:url(#SVGID_00000147186128508414936980000005427387811588792457_);}
	.st25{fill:url(#SVGID_00000129883978256894666130000011097241594925982604_);}
	.st26{fill:url(#SVGID_00000008836171264419774640000010874195947246387130_);}
	.st27{fill:url(#SVGID_00000160904516322752386120000006642083739447111084_);}
	.st28{fill:url(#SVGID_00000114049576001197526150000008760901656647403700_);}
	.st29{fill:url(#SVGID_00000107565609264847625820000003048656741640110990_);}
	.st30{fill:url(#SVGID_00000043436221699694132000000017974407770895556741_);}
	.st31{fill:url(#SVGID_00000041984504451450184810000005699798184522514328_);}
	.st32{fill:url(#SVGID_00000131358594786635558410000012888199416110839479_);}
	.st33{fill:url(#SVGID_00000088852672951137320440000013523916724348280744_);}
	.st34{fill:url(#SVGID_00000108292753031762575040000018246972876368850860_);}
	.st35{fill:url(#SVGID_00000141419476022132119080000010053408958556607391_);}
	.st36{fill:url(#SVGID_00000021833520566848472210000008438997294007467396_);}
	.st37{fill:url(#SVGID_00000084496473192556996370000017200603900914071471_);}
	.st38{fill:url(#SVGID_00000124872925081527608170000003119098471097825972_);}
	.st39{fill:url(#SVGID_00000145040877974552312490000016284492981567362186_);}
	.st40{fill:url(#SVGID_00000095296953836868950820000016641981897746203529_);}
	.st41{fill:url(#SVGID_00000176014469950439560790000015432510514354874535_);}
	.st42{fill:url(#SVGID_00000014606300491125409050000010007049154715407034_);}
	.st43{fill:url(#SVGID_00000127005195037369271820000014327626351630302618_);}
	.st44{fill:url(#SVGID_00000152259294517164772680000004583108930849632662_);}
	.st45{fill:url(#SVGID_00000074424247266852093670000000763768245674387637_);}
	.st46{fill:url(#SVGID_00000090988242425929755340000017010213609066386597_);}
	.st47{fill:url(#SVGID_00000090260018958783304450000011271126744569312419_);}
	.st48{fill:url(#SVGID_00000028306720110596247650000005131940900205213609_);}
	.st49{fill:url(#SVGID_00000181073166778778214870000008846199201553408129_);}
	.st50{fill:url(#SVGID_00000165223852301217007950000012282229798427761302_);}
	.st51{fill:url(#SVGID_00000161619260183924077380000002088597587191133350_);}
	.st52{fill:url(#SVGID_00000140725513510997583930000003276494422649757095_);}
	.st53{fill:url(#SVGID_00000093169733864555271700000000179967839838187411_);}
	.st54{fill:url(#SVGID_00000083076253632729639480000005212594543204033933_);}
	.st55{fill:url(#SVGID_00000098918454064701505950000012520871499583237543_);}
	.st56{fill:url(#SVGID_00000015312938511579030010000006596191701693094560_);}
	.st57{fill:url(#SVGID_00000173129387144430015950000011422833943131989942_);}
	.st58{fill:url(#SVGID_00000125574941602407312250000011423598764508922011_);}
	.st59{fill:url(#SVGID_00000173140254943684563860000017003258588365456061_);}
	.st60{fill:url(#SVGID_00000116214270279680297870000016257523026197454516_);}
	.st61{fill:url(#SVGID_00000078032739474302514300000005492057556493474472_);}
	.st62{fill:url(#SVGID_00000163783065643891689370000017162461781473658526_);}
	.st63{fill:url(#SVGID_00000052825714237408978240000000776773729785327505_);}
	.st64{fill:url(#SVGID_00000085226352020617073410000012150988541087029432_);}
	.st65{fill:url(#SVGID_00000181066095600245004320000001005992860528804790_);}
	.st66{fill:url(#SVGID_00000077308809079410708170000009698328659438694296_);}
	.st67{fill:url(#SVGID_00000124845609886642298960000002303836759949271210_);}
	.st68{fill:url(#SVGID_00000065791051116615100370000005972163818152014266_);}
	.st69{fill:url(#SVGID_00000034784120467452235060000017088981935063469468_);}
</style>
<g>
	<polygon points="1044.9,77 1059.4,77 1018.6,196.2 1003.7,196.2 992.1,161.9 969.1,97.7 946.2,161.9 934.4,196.2 919.4,196.2    878.4,77 893.1,77 926.9,179.3 963.1,77 975.2,77 1010.9,179.6 1029,125.3  "/>
	<g>
		<path d="M410.5,193.8V133c0-17.7-9.7-31.1-28-31.1c-17.7,0-29.7,14.8-29.7,32.5v59.4h-28.5V77.4H350l1.9,15.8    c11.8-11.5,23.6-17.4,38.2-17.4c27.3,0,49.2,20.5,49.2,57v61H410.5z"/>
		<path d="M490.2,44.9v33h18.2l13.9,24.7h-32.3v50.2c0,11.1,6.1,16.5,15.1,16.5c4.5,0,9.7-1.4,13.9-3.5l8,24.5    c-8.2,3.3-15.1,4.7-23.8,4.9c-25.2,0.9-41.7-13.4-41.7-42.4v-50.2h-21.7V77.9h21.7V47.9L490.2,44.9z"/>
		<path d="M649.7,135.8c0,33.5-22.9,60.6-60.6,60.6c-37.7,0-60.3-27.1-60.3-60.6c0-33.2,23.1-60.6,60.1-60.6    C625.9,75.3,649.7,102.6,649.7,135.8z M557.6,135.8c0,17.7,10.6,34.2,31.6,34.2s31.6-16.5,31.6-34.2c0-17.4-12.3-34.4-31.6-34.4    C568.4,101.4,557.6,118.4,557.6,135.8z"/>
		<path d="M687.3,77.7l2.2,13.7c9.1-14.7,21.4-16.8,33.4-16.8c12.3,0,24.1,4.8,30.6,11.3l-13.2,25.5c-6-5.1-11.5-7.7-21.2-7.7    c-15.4,0-29.6,8.2-29.6,30.1v62.5h-29.3V77.7H687.3z"/>
		<path d="M256.2,170.7c-20.3,0-32.8-10.4-34.6-24.7h90.7c4.5-47.8-19.8-71.9-58.7-71.9c-37.7,0-61.7,25.5-61.7,60.8    c0,37.2,23.8,62,63.9,62c14.5,0,30.7-4.2,42.7-12.7l-12.7-22.9C278.7,167.3,266,170.7,256.2,170.7z M254.5,99.6    c16.5,0,28.3,7.5,30.2,22.6H222C226.3,107.1,239,99.6,254.5,99.6z"/>
		<path d="M783.4,188.4c-9.1-5.2-16.2-12.4-21.3-21.7c-5.1-9.3-7.7-19.6-7.7-31.1c0-11.5,2.6-21.8,7.7-31.1    c5.1-9.3,12.2-16.5,21.3-21.7c9.1-5.2,19.5-7.8,31.1-7.8c11.6,0,22,2.6,31.1,7.9c9.1,5.3,16.2,12.5,21.3,21.7    c5.1,9.2,7.7,19.5,7.7,31c0,11.5-2.6,21.8-7.7,31c-5.1,9.2-12.2,16.4-21.3,21.7c-9.1,5.3-19.5,7.9-31.1,7.9    C802.9,196.2,792.5,193.6,783.4,188.4z M838.6,177.2c7.1-4.2,12.6-9.9,16.6-17.2c4-7.3,6-15.4,6-24.4s-2-17.1-6-24.4    c-4-7.3-9.5-13-16.6-17.2c-7.1-4.2-15.1-6.2-24-6.2s-17,2.1-24.2,6.2c-7.2,4.2-12.7,9.9-16.6,17.2c-3.9,7.3-5.9,15.4-5.9,24.4    s2,17.1,5.9,24.4c3.9,7.3,9.5,13,16.6,17.2c7.1,4.2,15.2,6.2,24.2,6.2S831.5,181.4,838.6,177.2z"/>
	</g>
	<g>
		
			<linearGradient id="SVGID_00000046328089124121347300000000853144038717040526_" gradientUnits="userSpaceOnUse" x1="20.5748" y1="121.0205" x2="57.0469" y2="121.0205">
			<stop offset="0" style="stop-color:#48BA74"/>
			<stop offset="1" style="stop-color:#25886B"/>
		</linearGradient>
		<path style="fill:url(#SVGID_00000046328089124121347300000000853144038717040526_);" d="M52.7,45.5l-27.1-0.3    c-2.6,0-4.9,2.5-4.9,5.1l-0.1,140.5c0,3.3,2.8,6,6.1,6H57v-147C57,47.5,55.1,45.5,52.7,45.5z"/>
		
			<linearGradient id="SVGID_00000093890393877665341440000001706934591130606224_" gradientUnits="userSpaceOnUse" x1="-2696.6719" y1="121.0205" x2="-2660.1997" y2="121.0205" gradientTransform="matrix(-1 0 0 1 -2517.9041 0)">
			<stop offset="0" style="stop-color:#E678B7"/>
			<stop offset="1" style="stop-color:#CE37B8"/>
		</linearGradient>
		<path style="fill:url(#SVGID_00000093890393877665341440000001706934591130606224_);" d="M146.7,45.5l27.1-0.3    c2.6,0,4.9,2.5,4.9,5.1l0.1,140.5c0,3.3-2.8,6-6.1,6h-30.4v-147C142.3,47.5,144.3,45.5,146.7,45.5z"/>
		
			<linearGradient id="SVGID_00000083768374503936469050000007622658427512888224_" gradientUnits="userSpaceOnUse" x1="51.4175" y1="44.3737" x2="94.8988" y2="129.1893">
			<stop offset="0" style="stop-color:#00A7FF"/>
			<stop offset="1" style="stop-color:#0070F5"/>
		</linearGradient>
		<path style="fill:url(#SVGID_00000083768374503936469050000007622658427512888224_);" d="M119.4,129.1    c-12.9-3.7-28.2-57.7-36.2-70.9c-7.4-12.2-15.4-13-15.4-13l-40.7,0c8.7,3.9,24.1,41,28.5,51.9c3.3,8.2,10.3,22.2,13.5,28.6    c1.1,2.1,3.2,3.4,5.6,3.4L119.4,129.1z"/>
		
			<linearGradient id="SVGID_00000042727821973214900180000018030375503163144110_" gradientUnits="userSpaceOnUse" x1="78.6917" y1="87.1184" x2="171.5765" y2="87.1184">
			<stop offset="0" style="stop-color:#00A7FF"/>
			<stop offset="1" style="stop-color:#0070F5"/>
		</linearGradient>
		<path style="fill:url(#SVGID_00000042727821973214900180000018030375503163144110_);" d="M171.6,45.1l-40.7,0c0,0-8,0.9-15.4,13    c-8,13.1-23.3,67-36.2,70.7c-0.1,0-0.7,0.2-0.5,0.2l45.3,0c2.4,0,4.5-1.3,5.6-3.4c3.2-6.4,10.2-20.4,13.5-28.6    C147.5,86.1,162.8,49,171.6,45.1z"/>
	</g>
	<g>
		<path d="M214.1,245.2H194v-3.8h44.6v3.8h-20.1v51.8h-4.3V245.2z"/>
		<path d="M273.9,257.7c0,13.1,0,26.2,0,39.3h-3.9v-8.4c-3.8,6.1-9.7,9-16.1,9c-11,0-20-8.3-20-20.3s9-20.1,20-20.1    c6.4,0,12.8,2.9,16.1,9.1v-8.6H273.9z M237.8,277.4c0,9.9,7.2,16.5,16.1,16.5c21.9,0,21.9-32.9,0-32.9    C244.9,261,237.8,267.5,237.8,277.4z"/>
		<path d="M288.3,241.3v55.7h-3.9v-55.7H288.3z"/>
		<path d="M297,277.4c0-11.8,8.9-20.3,20-20.3c11.1,0,20.9,6.8,19.4,22.1H301c0.8,9.2,7.9,14.6,16,14.6c5.2,0,11.2-2.1,14.2-6    l2.8,2.2c-3.8,5-10.7,7.6-17,7.6C305.9,297.6,297,289.9,297,277.4z M332.9,275.8c-0.1-9.7-6.5-15.1-15.9-15.1    c-8.1,0-15.1,5.5-16,15.1H332.9z"/>
		<path d="M350.4,257.7v7c3-5.4,8.5-7.6,14-7.7c10.5,0,17.8,6.5,17.8,17.4v22.7h-3.9v-22.6c0-8.9-5.5-13.7-14-13.6    c-8.1,0.1-13.8,6.2-13.8,14.3v21.9h-3.9v-39.3H350.4z"/>
		<path d="M399.7,245.9v11.9h13.4v3.3h-13.4v24c0,5.3,1.1,9.1,7.2,9.1c1.9,0,4.1-0.6,6.1-1.6l1.4,3.2c-2.5,1.2-4.9,2-7.4,2    c-8.4,0-11.1-4.9-11.1-12.7v-24h-8.4v-3.3h8.4v-11.5L399.7,245.9z"/>
		<path d="M489,297.1l-6.1-13.7h-33.3l-6.1,13.7h-4.6l25-55.7h4.7l25,55.7H489z M481.2,279.4l-15-33.9l-15,33.9H481.2z"/>
		<path d="M531.5,291.6c-4,4-9.2,5.9-14.3,5.9c-11.1,0-20.2-7.6-20.2-20.1s8.8-20.1,20.2-20.1c5.2,0,10.4,2,14.3,5.9l-2.5,2.5    c-3.2-3.2-7.6-4.7-11.8-4.7c-8.9,0-16.4,5.8-16.4,16.4c0,10.6,7.5,16.4,16.4,16.4c4.2,0,8.5-1.7,11.7-4.9L531.5,291.6z"/>
		<path d="M571.7,291.6c-4,4-9.2,5.9-14.3,5.9c-11.1,0-20.2-7.6-20.2-20.1s8.8-20.1,20.2-20.1c5.2,0,10.4,2,14.3,5.9l-2.5,2.5    c-3.2-3.2-7.6-4.7-11.8-4.7c-8.9,0-16.4,5.8-16.4,16.4c0,10.6,7.5,16.4,16.4,16.4c4.2,0,8.5-1.7,11.7-4.9L571.7,291.6z"/>
		<path d="M579,277.4c0-11.8,8.9-20.3,20-20.3c11.1,0,20.9,6.8,19.4,22.1H583c0.8,9.2,7.9,14.6,16,14.6c5.2,0,11.2-2.1,14.2-6    l2.8,2.2c-3.8,5-10.7,7.6-17,7.6C587.9,297.6,579,289.9,579,277.4z M614.9,275.8c-0.1-9.7-6.5-15.1-15.9-15.1    c-8.1,0-15.1,5.5-16,15.1H614.9z"/>
		<path d="M632.5,241.3v55.7h-3.9v-55.7H632.5z"/>
		<path d="M641.1,277.4c0-11.8,8.9-20.3,20-20.3s20.9,6.8,19.4,22.1h-35.4c0.8,9.2,7.9,14.6,16,14.6c5.2,0,11.2-2.1,14.2-6l2.8,2.2    c-3.8,5-10.7,7.6-17,7.6C650.1,297.6,641.1,289.9,641.1,277.4z M677.1,275.8c-0.1-9.7-6.5-15.1-15.9-15.1c-8.1,0-15.1,5.5-16,15.1    H677.1z"/>
		<path d="M694.3,257.7l0.2,7c2.5-5.3,8-7.4,13.1-7.4c2.9-0.1,5.8,0.7,8.4,2.3l-1.8,3.2c-2.1-1.3-4.4-1.8-6.7-1.8    c-7.3,0.1-13,6-13,13.1v22.9h-3.9v-39.3H694.3z"/>
		<path d="M759.7,257.7c0,13.1,0,26.2,0,39.3h-3.9v-8.4c-3.8,6.1-9.7,9-16.1,9c-11,0-20-8.3-20-20.3s9-20.1,20-20.1    c6.4,0,12.8,2.9,16.1,9.1v-8.6H759.7z M723.7,277.4c0,9.9,7.2,16.5,16.1,16.5c21.9,0,21.9-32.9,0-32.9    C730.8,261,723.7,267.5,723.7,277.4z"/>
		<path d="M777.6,245.9v11.9H791v3.3h-13.4v24c0,5.3,1.1,9.1,7.2,9.1c1.9,0,4.1-0.6,6.1-1.6l1.4,3.2c-2.5,1.2-4.9,2-7.4,2    c-8.4,0-11.1-4.9-11.1-12.7v-24h-8.4v-3.3h8.4v-11.5L777.6,245.9z"/>
		<path d="M798.2,277.5c0-12.5,8.9-20.5,20-20.5c11.1,0,20,8,20,20.5c0,12.5-8.9,20.1-20,20.1C807.1,297.6,798.2,290,798.2,277.5z     M834.3,277.5c0-10.2-7.2-16.8-16.2-16.8c-8.9,0-16.2,6.6-16.2,16.8c0,10.2,7.2,16.3,16.2,16.3    C827.1,293.8,834.3,287.7,834.3,277.5z"/>
		<path d="M850.8,257.7l0.2,7c2.5-5.3,8-7.4,13.1-7.4c2.9-0.1,5.8,0.7,8.4,2.3l-1.8,3.2c-2.1-1.3-4.4-1.8-6.7-1.8    c-7.3,0.1-13,6-13,13.1v22.9h-3.9v-39.3H850.8z"/>
	</g>
</g>
</svg>